<?xml version="1.0" encoding="utf-8"?>
<!-- Generator: Adobe Illustrator 23.0.3, SVG Export Plug-In . SVG Version: 6.00 Build 0)  -->
<svg version="1.1" id="Layer_1" xmlns="http://www.w3.org/2000/svg" xmlns:xlink="http://www.w3.org/1999/xlink" x="0px" y="0px"
	 viewBox="0 0 183.9 44" style="enable-background:new 0 0 183.9 44;" xml:space="preserve">
<style type="text/css">
	.st0{fill:#2D2E2D;}
	.st1{fill:#ED2224;}
</style>
<g>
	<path class="st0" d="M86.9,27l-2.4,6.6c0,0.3-0.3,0.3-0.3,0.3h-3.7c-0.3,0-0.3,0-0.3-0.3c2.1-5.5,5.3-15,7.6-21.3
		c0-0.3,0.3-0.8,0.3-2.1c0-0.3,0-0.3,0.3-0.3h5c0.3-0.3,0.3,0,0.3,0c2.6,7.6,5.8,15.8,8.4,23.5c0,0.3,0,0.3-0.3,0.3h-4.2
		c-0.3,0-0.3,0-0.3-0.3l-2.4-6.6h-8.2L86.9,27z M94.3,23.3c-0.8-2.4-2.6-7.4-3.2-10c-0.5,2.4-2.1,6.6-3.2,10H94.3z M104.6,24.9
		c0-5.3,4-9.5,10.3-9.5c0.8,0,1.6,0,2.1,0.3V7.7c0-0.3,0-0.3,0.3-0.3h4c0.3,0,0.3,0,0.3,0.3v24c0,0.3,0,0.3-0.3,0.3
		c-2.4,1.1-5,1.8-7.4,1.8C108.3,34.1,104.6,31.2,104.6,24.9L104.6,24.9z M116.7,19.3c-0.5-0.3-1.3-0.3-2.1-0.3
		c-3.4,0-5.5,2.1-5.5,5.8c0,4.2,2.4,5.8,5.3,5.8c0.8,0,1.8-0.3,2.6-0.3V19.3H116.7z M143.6,24.6c0,5.8-3.7,9.5-9,9.5
		c-6.3,0-9-4.7-9-9.2c0-5.5,3.7-9.2,9.2-9.2C140.4,15.4,143.6,19.6,143.6,24.6L143.6,24.6z M130.2,24.6c0,3.7,1.6,6.1,4.5,6.1
		c2.4,0,4.2-1.6,4.2-6.1c0-3.4-1.3-6.1-4.5-6.1C132,18.8,130.2,20.9,130.2,24.6z M151.5,7.7c0.3,0,0.3,0,0.3,0.3v8.4
		c1.3-0.5,2.6-0.8,4-0.8c5,0,8.2,3.7,8.2,8.4c0,6.3-5,10.3-10.8,10.3c-1.8,0-3.7-0.3-5.5-0.8c-0.3,0-0.3-0.3-0.3-0.3V8
		c0-0.3,0-0.3,0.3-0.3L151.5,7.7z M154.9,19.1c-1.1,0-2.1,0.3-2.9,0.5v10.8c0.5,0.3,1.3,0.3,2.1,0.3c2.6,0,5.8-2.1,5.8-6.3
		C159.7,20.9,157.6,19.1,154.9,19.1z M172.3,25.6c0,2.9,1.8,4.7,5.5,4.7c1.3,0,2.9-0.3,4.5-0.8c0,0,0.3,0,0.3,0.3v2.9
		c0,0.3,0,0.3-0.3,0.5c-1.3,0.8-3.2,1.1-5.5,1.1c-6.6,0-9.2-4.5-9.2-9.2c0-5.3,3.2-9.5,8.7-9.5c5.5,0,7.6,4.2,7.6,7.6
		c0,1.6-0.3,2.4-0.3,2.4L172.3,25.6L172.3,25.6z M178.1,22.7c1.3,0,1.6-0.3,1.6-0.3V22c0-1.1-0.8-3.4-3.7-3.4c-2.4,0-3.7,1.8-4,4.2
		L178.1,22.7z"/>
	<path class="st1" d="M31.4,0.1l18.4,44v-44H31.4z M0,0.1v44l18.4-44H0z M16.9,35.1h8.4l3.7,9h7.6L24.8,16.2L16.9,35.1z"/>
</g>
</svg>
