<svg xmlns="http://www.w3.org/2000/svg" width="18.226" height="11.471" viewBox="0 0 18.226 11.471">
  <path id="logo" d="M5.4,0A7.138,7.138,0,0,1,6.892.145,3.23,3.23,0,0,1,8.049.618a2.2,2.2,0,0,1,.747.876,3.077,3.077,0,0,1,.265,1.349,2.512,2.512,0,0,1-.394,1.446A2.861,2.861,0,0,1,7.5,5.237,2.759,2.759,0,0,1,9.085,6.306a3.181,3.181,0,0,1,.522,1.84,3.156,3.156,0,0,1-.338,1.5,2.922,2.922,0,0,1-.908,1.036,4.02,4.02,0,0,1-1.3.595,5.872,5.872,0,0,1-1.5.193H0V0ZM5.077,4.643a1.813,1.813,0,0,0,1.109-.321,1.213,1.213,0,0,0,.434-1.044,1.334,1.334,0,0,0-.145-.659,1.069,1.069,0,0,0-.386-.4,1.629,1.629,0,0,0-.554-.2,3.687,3.687,0,0,0-.651-.056H2.522V4.643H5.077Zm.145,4.868a3.369,3.369,0,0,0,.707-.072A1.736,1.736,0,0,0,6.522,9.2a1.213,1.213,0,0,0,.41-.458A1.577,1.577,0,0,0,7.085,8a1.484,1.484,0,0,0-.5-1.261,2.126,2.126,0,0,0-1.317-.378H2.522V9.51Zm7.56-.241a2.038,2.038,0,0,0,1.478.5,2.032,2.032,0,0,0,1.189-.345,1.431,1.431,0,0,0,.611-.731h2.008a3.812,3.812,0,0,1-1.478,2.137,4.351,4.351,0,0,1-2.41.643,4.742,4.742,0,0,1-1.767-.313,3.669,3.669,0,0,1-1.333-.892,4.009,4.009,0,0,1-.844-1.381,5.054,5.054,0,0,1-.3-1.767,4.839,4.839,0,0,1,.305-1.735,4.015,4.015,0,0,1,2.209-2.313,4.3,4.3,0,0,1,1.727-.337,3.95,3.95,0,0,1,1.848.41,3.693,3.693,0,0,1,1.293,1.1,4.532,4.532,0,0,1,.731,1.574,5.872,5.872,0,0,1,.161,1.848H12.219a2.3,2.3,0,0,0,.562,1.606ZM15.36,4.9a1.6,1.6,0,0,0-1.245-.45,1.986,1.986,0,0,0-.908.185,1.73,1.73,0,0,0-.579.458,1.679,1.679,0,0,0-.305.578,2.612,2.612,0,0,0-.1.546H15.93A2.635,2.635,0,0,0,15.36,4.9ZM11.83.582h4.637V1.868H11.83Z" transform="translate(0)" fill="#fff"/>
</svg>
