<svg xmlns="http://www.w3.org/2000/svg" width="63.997" height="18" viewBox="0 0 63.997 18">
  <path id="Logo" d="M7.226,2.16a1.771,1.771,0,0,1-1.8,1.319c-1.254,0-2.062-.97-2.062-3.123,0-1.94.748-3.045,2.083-3.045a1.62,1.62,0,0,1,1.8,1.377h2.811c-.04-1.125-1.031-3.569-4.55-3.569C2.312-4.881.432-2.514.432.453c0,3.026,1.678,5.179,4.934,5.179,3.114,0,4.347-1.8,4.691-3.472Zm3.7,3.239h2.912V1.016c0-2.754,1.254-3.3,3.357-3.239V-4.881a3.382,3.382,0,0,0-3.357,2c0-.543-.04-1.532-.081-1.765H10.906c.02.853.02,1.726.02,2.735Zm6.915,0h2.912V-4.648H17.841ZM20.753-6.277V-8.76H17.841v2.483Zm.607,3.724h1.618V2.723c0,1.765.667,2.813,2.709,2.813a6.541,6.541,0,0,0,1.941-.194V3.44c-.2.019-.485.019-.647.019-.869,0-1.112-.291-1.112-1.047V-2.553h2.062V-4.648H25.869V-7.363H22.977v2.716H21.36Zm7.2,7.953H31.47V-4.648H28.558ZM31.47-6.277V-8.76H28.558v2.483ZM39.8,9.24h2.811V-1.894c0-.912.02-1.9.02-2.754H39.9c-.04.252-.081.7-.1.95-.243-.524-1.011-1.183-2.669-1.183-2.629,0-4.651,2.114-4.651,5.353,0,3.491,2.083,5.159,4.408,5.159a3.115,3.115,0,0,0,2.912-1.3ZM35.453.4c0-1.8.708-3.045,2.265-3.045,1.719,0,2.123,1.067,2.123,3.006,0,1.823-.4,3.045-2.184,3.045C36.141,3.4,35.453,2.18,35.453.4Zm18-5.043H50.557V.706c0,1.978-.546,2.657-1.86,2.657-1.254,0-1.618-.912-1.618-2.017V-4.648H44.188V1.908c0,2.483,1.355,3.724,3.478,3.724a3.03,3.03,0,0,0,2.891-1.4c.02.349.04.892.081,1.164h2.831c-.02-.892-.02-1.959-.02-2.909ZM64.388.977a5.632,5.632,0,0,0,.04-.853c0-2.5-1.233-5-4.812-5-3.377,0-5.055,2.25-5.055,5.412,0,2.638,1.5,5.1,4.954,5.1,3.276,0,4.428-2.017,4.792-3.239H61.416a1.676,1.676,0,0,1-1.84,1.067,2.205,2.205,0,0,1-2.1-2.483ZM57.533-.73c.121-1.241.687-2.153,2.062-2.153,1.415,0,1.9.989,1.921,2.153Z" transform="translate(-0.432 8.76)" fill="#212121"/>
</svg>
