<svg xmlns="http://www.w3.org/2000/svg" width="18.07" height="18.438" viewBox="0 0 18.07 18.438">
  <g id="logo" transform="translate(0 0)">
    <path id="Path" d="M8.851,1.885A7.9,7.9,0,0,0,8.656,0H0V3.421H5.081A4.505,4.505,0,0,1,3.2,6.412l-.017.115,2.737,2.12.19.019A9.014,9.014,0,0,0,8.851,1.885" transform="translate(9.219 7.539)" fill="#4285f4"/>
    <path id="Path-2" data-name="Path" d="M8.236,7.4a8.787,8.787,0,0,0,6.105-2.233L11.432,2.909a5.457,5.457,0,0,1-3.2.922A5.55,5.55,0,0,1,2.991,0L2.883.009.037,2.212,0,2.315A9.213,9.213,0,0,0,8.236,7.4" transform="translate(0.983 11.043)" fill="#34a853"/>
    <path id="Path-3" data-name="Path" d="M3.974,6.007a5.676,5.676,0,0,1-.307-1.823,5.964,5.964,0,0,1,.3-1.823l-.005-.122L1.078,0,.983.045a9.2,9.2,0,0,0,0,8.277L3.974,6.007" transform="translate(0 5.036)" fill="#fbbc05"/>
    <path id="Path-4" data-name="Path" d="M8.236,3.565A5.11,5.11,0,0,1,11.8,4.937L14.4,2.4A8.858,8.858,0,0,0,8.236,0,9.213,9.213,0,0,0,0,5.081L2.981,7.4A5.573,5.573,0,0,1,8.236,3.565" transform="translate(0.983)" fill="#eb4335"/>
  </g>
</svg>
